{
    "asset" : {
        "generator" : "Khronos glTF Blender I/O v1.6.16",
        "version" : "2.0"
    },
    "scene" : 0,
    "scenes" : [
        {
            "name" : "Scene",
            "nodes" : [
                0,
                1,
                2,
                3,
                4
            ]
        }
    ],
    "nodes" : [
        {
            "mesh" : 0,
            "name" : "Ring",
            "translation" : [
                -0.00028926486265845597,
                0,
                0.10000000149011612
            ]
        },
        {
            "mesh" : 1,
            "name" : "Circle"
        },
        {
            "mesh" : 2,
            "name" : "Ring.001",
            "translation" : [
                -0.00028926486265845597,
                0,
                -0.10000000149011612
            ]
        },
        {
            "mesh" : 3,
            "name" : "1",
            "rotation" : [
                0.7071068286895752,
                0,
                0,
                0.7071068286895752
            ],
            "scale" : [
                2,
                3,
                1.5000004768371582
            ],
            "translation" : [
                -0.5,
                -0.5,
                0.10000000149011612
            ]
        },
        {
            "mesh" : 4,
            "name" : "1.001",
            "rotation" : [
                0,
                0.7071068286895752,
                -0.7071068286895752,
                -3.090862321641907e-08
            ],
            "scale" : [
                2,
                3,
                1.5000004768371582
            ],
            "translation" : [
                0.5,
                -0.5,
                -0.10000000149011612
            ]
        }
    ],
    "materials" : [
        {
            "doubleSided" : true,
            "emissiveFactor" : [
                1,
                1,
                1
            ],
            "name" : "Material_0",
            "pbrMetallicRoughness" : {
                "metallicFactor" : 0
            }
        },
        {
            "doubleSided" : true,
            "name" : "Material_1",
            "pbrMetallicRoughness" : {
                "baseColorFactor" : [
                    0,
                    0,
                    0,
                    1
                ],
                "metallicFactor" : 0
            }
        },
        {
            "doubleSided" : true,
            "name" : "Material",
            "pbrMetallicRoughness" : {
                "baseColorFactor" : [
                    1,
                    0.9786862134933472,
                    0.9163454174995422,
                    1
                ],
                "metallicFactor" : 0.5367646813392639,
                "roughnessFactor" : 0.4000000059604645
            }
        },
        {
            "doubleSided" : true,
            "name" : "Material.003",
            "pbrMetallicRoughness" : {
                "baseColorFactor" : [
                    0.9551047086715698,
                    0.9114075899124146,
                    1,
                    1
                ],
                "metallicFactor" : 0.5073529481887817,
                "roughnessFactor" : 0.5
            }
        }
    ],
    "meshes" : [
        {
            "name" : "Mesh_0",
            "primitives" : [
                {
                    "attributes" : {
                        "POSITION" : 0,
                        "NORMAL" : 1,
                        "TEXCOORD_0" : 2
                    },
                    "indices" : 3,
                    "material" : 0
                }
            ]
        },
        {
            "name" : "Mesh_1",
            "primitives" : [
                {
                    "attributes" : {
                        "POSITION" : 4,
                        "NORMAL" : 5,
                        "TEXCOORD_0" : 6
                    },
                    "indices" : 7,
                    "material" : 1
                }
            ]
        },
        {
            "name" : "Mesh_2",
            "primitives" : [
                {
                    "attributes" : {
                        "POSITION" : 8,
                        "NORMAL" : 9,
                        "TEXCOORD_0" : 10
                    },
                    "indices" : 3,
                    "material" : 0
                }
            ]
        },
        {
            "name" : "1",
            "primitives" : [
                {
                    "attributes" : {
                        "POSITION" : 11,
                        "NORMAL" : 12,
                        "TEXCOORD_0" : 13
                    },
                    "indices" : 14,
                    "material" : 2
                }
            ]
        },
        {
            "name" : "1.001",
            "primitives" : [
                {
                    "attributes" : {
                        "POSITION" : 15,
                        "NORMAL" : 16,
                        "TEXCOORD_0" : 17
                    },
                    "indices" : 14,
                    "material" : 3
                }
            ]
        }
    ],
    "accessors" : [
        {
            "bufferView" : 0,
            "componentType" : 5126,
            "count" : 1786,
            "max" : [
                1,
                1,
                0
            ],
            "min" : [
                -1,
                -1,
                0
            ],
            "type" : "VEC3"
        },
        {
            "bufferView" : 1,
            "componentType" : 5126,
            "count" : 1786,
            "type" : "VEC3"
        },
        {
            "bufferView" : 2,
            "componentType" : 5126,
            "count" : 1786,
            "type" : "VEC2"
        },
        {
            "bufferView" : 3,
            "componentType" : 5123,
            "count" : 6144,
            "type" : "SCALAR"
        },
        {
            "bufferView" : 4,
            "componentType" : 5126,
            "count" : 51,
            "max" : [
                1,
                1,
                0
            ],
            "min" : [
                -1,
                -1,
                0
            ],
            "type" : "VEC3"
        },
        {
            "bufferView" : 5,
            "componentType" : 5126,
            "count" : 51,
            "type" : "VEC3"
        },
        {
            "bufferView" : 6,
            "componentType" : 5126,
            "count" : 51,
            "type" : "VEC2"
        },
        {
            "bufferView" : 7,
            "componentType" : 5123,
            "count" : 96,
            "type" : "SCALAR"
        },
        {
            "bufferView" : 8,
            "componentType" : 5126,
            "count" : 1786,
            "max" : [
                1,
                1,
                0
            ],
            "min" : [
                -1,
                -1,
                0
            ],
            "type" : "VEC3"
        },
        {
            "bufferView" : 9,
            "componentType" : 5126,
            "count" : 1786,
            "type" : "VEC3"
        },
        {
            "bufferView" : 10,
            "componentType" : 5126,
            "count" : 1786,
            "type" : "VEC2"
        },
        {
            "bufferView" : 11,
            "componentType" : 5126,
            "count" : 116,
            "max" : [
                0.4660000205039978,
                0,
                0
            ],
            "min" : [
                0.03400000184774399,
                0,
                -0.6910000443458557
            ],
            "type" : "VEC3"
        },
        {
            "bufferView" : 12,
            "componentType" : 5126,
            "count" : 116,
            "type" : "VEC3"
        },
        {
            "bufferView" : 13,
            "componentType" : 5126,
            "count" : 116,
            "type" : "VEC2"
        },
        {
            "bufferView" : 14,
            "componentType" : 5123,
            "count" : 261,
            "type" : "SCALAR"
        },
        {
            "bufferView" : 15,
            "componentType" : 5126,
            "count" : 116,
            "max" : [
                0.4660000205039978,
                0,
                0
            ],
            "min" : [
                0.03400000184774399,
                0,
                -0.6910000443458557
            ],
            "type" : "VEC3"
        },
        {
            "bufferView" : 16,
            "componentType" : 5126,
            "count" : 116,
            "type" : "VEC3"
        },
        {
            "bufferView" : 17,
            "componentType" : 5126,
            "count" : 116,
            "type" : "VEC2"
        }
    ],
    "bufferViews" : [
        {
            "buffer" : 0,
            "byteLength" : 21432,
            "byteOffset" : 0
        },
        {
            "buffer" : 0,
            "byteLength" : 21432,
            "byteOffset" : 21432
        },
        {
            "buffer" : 0,
            "byteLength" : 14288,
            "byteOffset" : 42864
        },
        {
            "buffer" : 0,
            "byteLength" : 12288,
            "byteOffset" : 57152
        },
        {
            "buffer" : 0,
            "byteLength" : 612,
            "byteOffset" : 69440
        },
        {
            "buffer" : 0,
            "byteLength" : 612,
            "byteOffset" : 70052
        },
        {
            "buffer" : 0,
            "byteLength" : 408,
            "byteOffset" : 70664
        },
        {
            "buffer" : 0,
            "byteLength" : 192,
            "byteOffset" : 71072
        },
        {
            "buffer" : 0,
            "byteLength" : 21432,
            "byteOffset" : 71264
        },
        {
            "buffer" : 0,
            "byteLength" : 21432,
            "byteOffset" : 92696
        },
        {
            "buffer" : 0,
            "byteLength" : 14288,
            "byteOffset" : 114128
        },
        {
            "buffer" : 0,
            "byteLength" : 1392,
            "byteOffset" : 128416
        },
        {
            "buffer" : 0,
            "byteLength" : 1392,
            "byteOffset" : 129808
        },
        {
            "buffer" : 0,
            "byteLength" : 928,
            "byteOffset" : 131200
        },
        {
            "buffer" : 0,
            "byteLength" : 522,
            "byteOffset" : 132128
        },
        {
            "buffer" : 0,
            "byteLength" : 1392,
            "byteOffset" : 132652
        },
        {
            "buffer" : 0,
            "byteLength" : 1392,
            "byteOffset" : 134044
        },
        {
            "buffer" : 0,
            "byteLength" : 928,
            "byteOffset" : 135436
        }
    ],
    "buffers" : [
        {
            "byteLength" : 136364,
            "uri" : "data:application/octet-stream;base64,"
        }
    ]
}
